<svg width="1872" height="695" viewBox="0 0 1872 695" fill="none" xmlns="http://www.w3.org/2000/svg">
<path d="M1316.69 575.743C1316.69 578.416 1314.52 580.587 1311.84 580.587C1309.17 580.587 1307 578.416 1307 575.743C1307 573.071 1309.17 570.9 1311.84 570.9C1314.52 570.9 1316.69 573.065 1316.69 575.743Z" stroke="#563B92" stroke-opacity="0.6" stroke-width="2" stroke-miterlimit="10" stroke-linecap="round" stroke-linejoin="round"/>
<path d="M1363.68 617.751C1366.35 617.751 1368.52 615.583 1368.52 612.908C1368.52 610.233 1366.35 608.064 1363.68 608.064C1361 608.064 1358.84 610.233 1358.84 612.908C1358.84 615.583 1361 617.751 1363.68 617.751Z" stroke="#563B92" stroke-opacity="0.6" stroke-width="2" stroke-miterlimit="10" stroke-linecap="round" stroke-linejoin="round"/>
<path d="M1345.44 602.95C1351.15 602.95 1355.77 598.325 1355.77 592.62C1355.77 586.915 1351.15 582.29 1345.44 582.29C1339.74 582.29 1335.11 586.915 1335.11 592.62C1335.11 598.325 1339.74 602.95 1345.44 602.95Z" stroke="#563B92" stroke-opacity="0.6" stroke-width="2" stroke-miterlimit="10" stroke-linecap="round" stroke-linejoin="round"/>
<path d="M1363.44 592.62L1360 598.642L1358.17 605.346L1351.47 607.168L1345.44 610.619L1339.42 607.168L1332.71 605.346L1330.89 598.642L1327.44 592.62L1330.89 586.592L1332.71 579.888L1339.42 578.067L1345.44 574.616L1351.47 578.067L1358.17 579.888L1360 586.592L1363.44 592.62Z" stroke="#563B92" stroke-opacity="0.6" stroke-width="2" stroke-miterlimit="10" stroke-linecap="round" stroke-linejoin="round"/>
<path d="M1358.84 612.908C1358.84 610.235 1361.01 608.064 1363.68 608.064C1365.12 608.064 1366.42 608.701 1367.31 609.705C1370.99 604.991 1373.2 599.065 1373.2 592.614C1373.2 577.283 1360.77 564.855 1345.44 564.855C1330.11 564.855 1317.68 577.283 1317.68 592.614C1317.68 607.946 1330.11 620.374 1345.44 620.374C1350.83 620.374 1355.85 618.834 1360.11 616.178C1359.33 615.316 1358.84 614.171 1358.84 612.908Z" stroke="#563B92" stroke-opacity="0.6" stroke-width="2" stroke-miterlimit="10" stroke-linecap="round" stroke-linejoin="round"/>
<path d="M1345.44 555.055C1332.49 555.055 1321.07 561.613 1314.32 571.588C1315.73 572.434 1316.69 573.979 1316.69 575.749C1316.69 578.422 1314.52 580.593 1311.84 580.593C1311.18 580.593 1310.56 580.457 1309.99 580.221C1308.63 584.106 1307.89 588.273 1307.89 592.62C1307.89 613.365 1324.71 630.185 1345.45 630.185C1366.19 630.185 1383.01 613.365 1383.01 592.62C1383.01 571.875 1366.19 555.055 1345.44 555.055Z" stroke="#563B92" stroke-opacity="0.6" stroke-width="2" stroke-miterlimit="10" stroke-linecap="round" stroke-linejoin="round"/>
<path d="M1374.84 112.281L1351.53 104.365C1349.07 103.531 1347.76 100.855 1348.59 98.3918C1349.43 95.929 1352.1 94.6143 1354.56 95.4485L1377.86 103.364C1380.33 104.198 1381.64 106.875 1380.81 109.331C1379.97 111.8 1377.3 113.122 1374.84 112.281Z" stroke="#563B92" stroke-opacity="0.6" stroke-width="3" stroke-miterlimit="10"/>
<path d="M1371.78 121.304L1348.47 113.389C1346.01 112.554 1344.69 109.878 1345.53 107.422C1346.36 104.959 1349.04 103.645 1351.5 104.479L1374.81 112.388C1377.27 113.222 1378.58 115.898 1377.75 118.361C1376.91 120.824 1374.24 122.138 1371.78 121.304Z" stroke="#563B92" stroke-opacity="0.6" stroke-width="3" stroke-miterlimit="10"/>
<path d="M1351.06 71.1082C1351.09 71.1883 1351.11 71.2618 1351.13 71.3419C1351.65 73.0037 1354.73 83.5354 1353.44 95.2218L1378.44 103.471C1384.37 93.3197 1393.11 86.6923 1394.52 85.6645C1394.58 85.6177 1394.65 85.571 1394.71 85.5243C1395.39 85.0371 1396.05 84.5165 1396.69 83.9626C1400.46 80.7123 1403.42 76.4342 1405.09 71.3752C1410.01 56.4786 1401.92 40.414 1387.02 35.4952C1372.12 30.5764 1356.06 38.6654 1351.14 53.562C1349.47 58.6277 1349.3 63.8268 1350.39 68.6789C1350.58 69.4931 1350.8 70.3073 1351.06 71.1082Z" stroke="#563B92" stroke-opacity="0.6" stroke-width="3" stroke-miterlimit="10"/>
<path d="M1349.75 113.936C1349.47 118.875 1352.51 123.58 1357.43 125.209C1362.29 126.81 1367.47 124.908 1370.22 120.884L1349.75 113.936Z" stroke="#563B92" stroke-opacity="0.6" stroke-width="3" stroke-miterlimit="10"/>
<path d="M1361.27 97.6715L1368.7 75.1597C1369.43 72.9439 1368.23 70.5545 1366.01 69.8204C1363.8 69.0862 1361.41 70.2943 1360.67 72.5101C1359.94 74.7259 1361.15 77.1152 1363.36 77.8494L1372.28 80.7926" stroke="#563B92" stroke-opacity="0.6" stroke-width="3" stroke-miterlimit="10"/>
<path d="M1371.07 100.908L1378.5 78.3962C1379.23 76.1804 1381.62 74.979 1383.84 75.7065C1386.05 76.4407 1387.25 78.83 1386.53 81.0458C1385.79 83.2616 1383.4 84.463 1381.19 83.7355L1372.27 80.7922" stroke="#563B92" stroke-opacity="0.6" stroke-width="3" stroke-miterlimit="10"/>
<path d="M1410.37 79.1304L1417.9 81.6198" stroke="#563B92" stroke-opacity="0.6" stroke-width="3" stroke-miterlimit="10" stroke-linecap="round"/>
<path d="M1413.82 69.6466L1421.66 68.4653" stroke="#563B92" stroke-opacity="0.6" stroke-width="3" stroke-miterlimit="10" stroke-linecap="round"/>
<path d="M1405.1 87.2661L1410.69 92.8857" stroke="#563B92" stroke-opacity="0.6" stroke-width="3" stroke-miterlimit="10" stroke-linecap="round"/>
<path d="M1340.44 56.0516L1332.91 53.5688" stroke="#563B92" stroke-opacity="0.6" stroke-width="3" stroke-miterlimit="10" stroke-linecap="round"/>
<path d="M1343.32 46.374L1337.73 40.7544" stroke="#563B92" stroke-opacity="0.6" stroke-width="3" stroke-miterlimit="10" stroke-linecap="round"/>
<path d="M1339.83 65.7222L1332 66.9035" stroke="#563B92" stroke-opacity="0.6" stroke-width="3" stroke-miterlimit="10" stroke-linecap="round"/>
<path d="M1138.99 190.634L1069.79 169.961C1064.75 168.459 1061.9 163.162 1063.4 158.129L1077.22 111.844C1078.72 106.81 1084.02 103.953 1089.05 105.455L1158.26 126.128C1163.29 127.63 1166.15 132.927 1164.65 137.96L1150.82 184.245C1149.32 189.273 1144.02 192.135 1138.99 190.634Z" stroke="#563B92" stroke-opacity="0.6" stroke-width="4" stroke-miterlimit="10" stroke-linecap="round"/>
<path d="M1065.03 152.655L1152.46 178.772" stroke="#563B92" stroke-opacity="0.6" stroke-width="4" stroke-miterlimit="10" stroke-linecap="round"/>
<path d="M1114.2 183.234L1094.6 177.379L1091.96 186.221L1111.56 192.076L1114.2 183.234Z" stroke="#563B92" stroke-opacity="0.6" stroke-width="4" stroke-miterlimit="10" stroke-linecap="round"/>
<path d="M1084.69 184.556L1118.53 194.664" stroke="#563B92" stroke-opacity="0.6" stroke-width="4" stroke-miterlimit="10" stroke-linecap="round"/>
<path d="M1811.72 117.69C1833.41 117.69 1851 109.354 1851 99.0713C1851 88.7882 1833.41 80.4521 1811.72 80.4521C1790.03 80.4521 1772.44 88.7882 1772.44 99.0713C1772.44 109.354 1790.03 117.69 1811.72 117.69Z" stroke="#563B92" stroke-opacity="0.6" stroke-width="3" stroke-miterlimit="10" stroke-linecap="round" stroke-linejoin="round"/>
<path d="M1827.6 108.777C1838.89 90.2482 1840.91 70.893 1832.13 65.5458C1823.34 60.1986 1807.08 70.8843 1795.8 89.4129C1784.52 107.942 1782.49 127.297 1791.28 132.644C1800.06 137.991 1816.32 127.305 1827.6 108.777Z" stroke="#563B92" stroke-opacity="0.6" stroke-width="3" stroke-miterlimit="10" stroke-linecap="round" stroke-linejoin="round"/>
<path d="M1832.12 132.635C1840.9 127.288 1838.88 107.933 1827.6 89.4043C1816.32 70.8757 1800.05 60.1901 1791.27 65.5373C1782.49 70.8845 1784.51 90.2397 1795.79 108.768C1807.07 127.297 1823.34 137.983 1832.12 132.635Z" stroke="#563B92" stroke-opacity="0.6" stroke-width="3" stroke-miterlimit="10" stroke-linecap="round" stroke-linejoin="round"/>
<path d="M1811.72 104C1814.44 104 1816.65 101.793 1816.65 99.0714C1816.65 96.3493 1814.44 94.1426 1811.72 94.1426C1809 94.1426 1806.79 96.3493 1806.79 99.0714C1806.79 101.793 1809 104 1811.72 104Z" stroke="#563B92" stroke-opacity="0.6" stroke-width="3" stroke-miterlimit="10" stroke-linecap="round" stroke-linejoin="round"/>
<path d="M691.463 681.9L649.843 691.508L647.971 683.395C647.541 681.515 648.706 679.644 650.586 679.205L685.401 671.164C687.282 670.734 689.153 671.898 689.592 673.778L691.463 681.9Z" stroke="#563B92" stroke-opacity="0.6" stroke-width="3" stroke-miterlimit="10" stroke-linecap="round"/>
<path d="M677.783 638.272C696.128 623.48 699.009 596.618 684.217 578.272C669.425 559.927 642.562 557.046 624.217 571.838C605.872 586.63 602.991 613.492 617.783 631.838C632.575 650.183 659.437 653.064 677.783 638.272Z" stroke="#563B92" stroke-opacity="0.6" stroke-width="3" stroke-miterlimit="10"/>
<path d="M670.859 642.805L631.065 567.318L626.095 558.158C600.154 571.831 590.215 603.942 603.888 629.883C617.562 655.824 649.672 665.764 675.614 652.09L670.751 642.867" stroke="#563B92" stroke-opacity="0.6" stroke-width="3" stroke-miterlimit="10" stroke-linecap="round" stroke-linejoin="round"/>
<path d="M639.835 583.859C652.863 576.99 661.467 567.709 659.052 563.128C656.637 558.548 644.118 560.403 631.09 567.272C618.062 574.141 609.458 583.422 611.873 588.003C614.288 592.583 626.807 590.728 639.835 583.859Z" stroke="#563B92" stroke-opacity="0.6" stroke-width="3" stroke-miterlimit="10"/>
<path d="M642.894 646.951C652.09 648.724 661.931 647.515 670.859 642.805C679.787 638.095 686.35 630.662 690.084 622.075C680.888 620.302 671.047 621.511 662.119 626.221C653.183 630.931 646.628 638.363 642.894 646.951Z" stroke="#563B92" stroke-opacity="0.6" stroke-width="3" stroke-miterlimit="10"/>
<path d="M670.892 642.758C681.312 637.264 680.85 615.912 669.859 595.066C658.869 574.22 641.511 561.776 631.091 567.27C620.67 572.764 621.132 594.117 632.123 614.962C643.114 635.808 660.471 648.253 670.892 642.758Z" stroke="#563B92" stroke-opacity="0.6" stroke-width="3" stroke-miterlimit="10"/>
<path d="M613.219 624.958L688.705 585.165" stroke="#563B92" stroke-opacity="0.6" stroke-width="3" stroke-miterlimit="10"/>
<path d="M663.355 656.738L667.761 675.113" stroke="#563B92" stroke-opacity="0.6" stroke-width="3" stroke-miterlimit="10"/>
<path d="M644.846 693.219L697.902 680.494" stroke="#563B92" stroke-opacity="0.6" stroke-width="3" stroke-miterlimit="10" stroke-linecap="round"/>
<path d="M1847.73 479.079L1865.03 461.774L1817.08 413.824L1799.78 431.129L1847.73 479.079Z" stroke="#563B92" stroke-opacity="0.6" stroke-width="3" stroke-miterlimit="10" stroke-linecap="round" stroke-linejoin="round"/>
<path d="M1869.71 483.76L1865.03 461.771L1847.72 479.076L1869.71 483.76Z" stroke="#563B92" stroke-opacity="0.6" stroke-width="3" stroke-miterlimit="10" stroke-linecap="round" stroke-linejoin="round"/>
<path d="M1867.53 473.5L1859.45 481.574" stroke="#563B92" stroke-opacity="0.6" stroke-width="3" stroke-miterlimit="10" stroke-linecap="round" stroke-linejoin="round"/>
<path d="M1794.68 417.936L1803.88 408.735C1806.12 406.495 1809.75 406.495 1811.99 408.735L1817.07 413.823L1799.77 431.128L1794.68 426.04C1792.44 423.801 1792.44 420.167 1794.68 417.936Z" stroke="#563B92" stroke-opacity="0.6" stroke-width="3" stroke-miterlimit="10" stroke-linecap="round" stroke-linejoin="round"/>
<path d="M1821.75 418.492L1804.45 435.805" stroke="#563B92" stroke-opacity="0.6" stroke-width="3" stroke-miterlimit="10" stroke-linecap="round" stroke-linejoin="round"/>
<path d="M1856.38 470.423L1813.1 427.152" stroke="#563B92" stroke-opacity="0.6" stroke-width="3" stroke-miterlimit="10" stroke-linecap="round" stroke-linejoin="round"/>
<path d="M896.027 421.262L892.842 428.521" stroke="#563B92" stroke-opacity="0.6" stroke-width="4" stroke-miterlimit="10" stroke-linecap="round" stroke-linejoin="round"/>
<path d="M919.145 431.403L915.96 438.662" stroke="#563B92" stroke-opacity="0.6" stroke-width="4" stroke-miterlimit="10" stroke-linecap="round" stroke-linejoin="round"/>
<path d="M942.269 441.539L939.084 448.799" stroke="#563B92" stroke-opacity="0.6" stroke-width="4" stroke-miterlimit="10" stroke-linecap="round" stroke-linejoin="round"/>
<path d="M880.554 414.476L878.961 418.112" stroke="#563B92" stroke-opacity="0.6" stroke-width="4" stroke-miterlimit="10" stroke-linecap="round" stroke-linejoin="round"/>
<path d="M888.29 417.875L886.698 421.499" stroke="#563B92" stroke-opacity="0.6" stroke-width="4" stroke-miterlimit="10" stroke-linecap="round" stroke-linejoin="round"/>
<path d="M903.718 424.633L902.125 428.269" stroke="#563B92" stroke-opacity="0.6" stroke-width="4" stroke-miterlimit="10" stroke-linecap="round" stroke-linejoin="round"/>
<path d="M911.449 428.025L909.862 431.655" stroke="#563B92" stroke-opacity="0.6" stroke-width="4" stroke-miterlimit="10" stroke-linecap="round" stroke-linejoin="round"/>
<path d="M926.882 434.79L925.289 438.425" stroke="#563B92" stroke-opacity="0.6" stroke-width="4" stroke-miterlimit="10" stroke-linecap="round" stroke-linejoin="round"/>
<path d="M950.38 445.096L948.793 448.726" stroke="#563B92" stroke-opacity="0.6" stroke-width="4" stroke-miterlimit="10" stroke-linecap="round" stroke-linejoin="round"/>
<path d="M934.612 438.182L933.025 441.812" stroke="#563B92" stroke-opacity="0.6" stroke-width="4" stroke-miterlimit="10" stroke-linecap="round" stroke-linejoin="round"/>
<path d="M937.268 503.145L860.93 405.876L960.731 449.632L937.268 503.145Z" stroke="#563B92" stroke-opacity="0.6" stroke-width="4" stroke-miterlimit="10" stroke-linecap="round" stroke-linejoin="round"/>
<path d="M933.377 472.446L912.494 445.836L939.793 457.801L933.377 472.446Z" stroke="#563B92" stroke-opacity="0.6" stroke-width="4" stroke-miterlimit="10" stroke-linecap="round" stroke-linejoin="round"/>
<path d="M740.529 30.7375L725.197 2.69482L609.595 65.8993L624.927 93.942L740.529 30.7375Z" stroke="#563B92" stroke-opacity="0.6" stroke-width="4" stroke-miterlimit="10" stroke-linecap="round" stroke-linejoin="round"/>
<path d="M726.656 38.3059L718.996 24.291" stroke="#563B92" stroke-opacity="0.6" stroke-width="4" stroke-miterlimit="10" stroke-linecap="round" stroke-linejoin="round"/>
<path d="M699.874 52.9521L692.204 38.9278" stroke="#563B92" stroke-opacity="0.6" stroke-width="4" stroke-miterlimit="10" stroke-linecap="round" stroke-linejoin="round"/>
<path d="M673.092 67.5986L665.422 53.5742" stroke="#563B92" stroke-opacity="0.6" stroke-width="4" stroke-miterlimit="10" stroke-linecap="round" stroke-linejoin="round"/>
<path d="M646.3 82.2351L638.64 68.2202" stroke="#563B92" stroke-opacity="0.6" stroke-width="4" stroke-miterlimit="10" stroke-linecap="round" stroke-linejoin="round"/>
<path d="M717.787 43.1551L713.962 36.1475" stroke="#563B92" stroke-opacity="0.6" stroke-width="4" stroke-miterlimit="10" stroke-linecap="round" stroke-linejoin="round"/>
<path d="M708.83 48.0487L704.996 41.0415" stroke="#563B92" stroke-opacity="0.6" stroke-width="4" stroke-miterlimit="10" stroke-linecap="round" stroke-linejoin="round"/>
<path d="M690.956 57.8241L687.132 50.8164" stroke="#563B92" stroke-opacity="0.6" stroke-width="4" stroke-miterlimit="10" stroke-linecap="round" stroke-linejoin="round"/>
<path d="M682 62.7172L678.165 55.71" stroke="#563B92" stroke-opacity="0.6" stroke-width="4" stroke-miterlimit="10" stroke-linecap="round" stroke-linejoin="round"/>
<path d="M664.126 72.4925L660.301 65.4849" stroke="#563B92" stroke-opacity="0.6" stroke-width="4" stroke-miterlimit="10" stroke-linecap="round" stroke-linejoin="round"/>
<path d="M655.169 77.3961L651.334 70.3789" stroke="#563B92" stroke-opacity="0.6" stroke-width="4" stroke-miterlimit="10" stroke-linecap="round" stroke-linejoin="round"/>
<path d="M105.544 496.922L74.212 482.47C72.5323 481.701 71.8021 479.715 72.5713 478.035L74.5433 473.762C75.3125 472.082 77.2988 471.352 78.9784 472.121L110.31 486.573C111.99 487.342 112.72 489.328 111.951 491.008L109.979 495.281C109.202 496.967 107.216 497.697 105.544 496.922Z" stroke="#563B92" stroke-opacity="0.6" stroke-width="4" stroke-miterlimit="10" stroke-linecap="round"/>
<path d="M87.8575 527.655L102.368 495.477L77.3699 484.204L62.8596 516.382L28.3281 558.036C25.3112 564.717 28.2895 572.575 34.9643 575.584L61.9575 587.753C68.6388 590.77 76.4964 587.791 79.5057 581.117L87.8575 527.655Z" stroke="#563B92" stroke-opacity="0.6" stroke-width="4" stroke-miterlimit="10" stroke-linecap="round"/>
<path d="M47.2819 535.161C47.2819 535.161 56.8858 533.746 65.2564 544.424C73.627 555.102 84.5448 548.896 84.5448 548.896" stroke="#563B92" stroke-opacity="0.6" stroke-width="4" stroke-miterlimit="10" stroke-linecap="round"/>
<path d="M159.48 111.015C171.343 111.015 180.96 101.398 180.96 89.5352C180.96 77.6721 171.343 68.0552 159.48 68.0552C147.617 68.0552 138 77.6721 138 89.5352C138 101.398 147.617 111.015 159.48 111.015Z" stroke="#563B92" stroke-opacity="0.6" stroke-width="4" stroke-miterlimit="10" stroke-linecap="round" stroke-linejoin="round"/>
<path d="M189.59 132.235C194.334 132.235 198.18 128.389 198.18 123.645C198.18 118.901 194.334 115.055 189.59 115.055C184.846 115.055 181 118.901 181 123.645C181 128.389 184.846 132.235 189.59 132.235Z" stroke="#563B92" stroke-opacity="0.6" stroke-width="4" stroke-miterlimit="10" stroke-linecap="round" stroke-linejoin="round"/>
</svg>
