<svg width="136" height="139" viewBox="0 0 136 139" fill="none" xmlns="http://www.w3.org/2000/svg">
<path d="M65.0111 116.23L31.2762 104.772C27.7115 103.565 25.8084 99.6907 27.0159 96.126C28.2235 92.5612 32.0974 90.6581 35.6525 91.8657L69.3874 103.323C72.9521 104.531 74.8553 108.405 73.6477 111.96C72.4401 115.534 68.5759 117.447 65.0111 116.23Z" stroke="#563B92" stroke-opacity="0.6" stroke-width="5" stroke-miterlimit="10"/>
<path d="M60.5769 129.291L26.8421 117.833C23.2773 116.626 21.3741 112.752 22.5817 109.197C23.7893 105.632 27.6632 103.729 31.228 104.936L64.9629 116.384C68.5276 117.592 70.4307 121.466 69.2232 125.03C68.0059 128.595 64.1417 130.498 60.5769 129.291Z" stroke="#563B92" stroke-opacity="0.6" stroke-width="5" stroke-miterlimit="10"/>
<path d="M30.5903 56.6332C30.6289 56.7491 30.6579 56.8554 30.6965 56.9713C31.4501 59.3768 35.894 74.6212 34.0391 91.537L70.2277 103.478C78.8063 88.7837 91.4521 79.1907 93.4905 77.703C93.5871 77.6353 93.6837 77.5678 93.7707 77.5001C94.7561 76.7949 95.7124 76.0414 96.6399 75.2395C102.088 70.5348 106.378 64.3424 108.793 57.0196C115.913 35.4571 104.204 12.204 82.6416 5.08417C61.0792 -2.0357 37.8261 9.67297 30.7062 31.2355C28.2814 38.5679 28.0399 46.0935 29.6242 53.1168C29.8947 54.2954 30.2135 55.4739 30.5903 56.6332Z" stroke="#563B92" stroke-opacity="0.6" stroke-width="5" stroke-miterlimit="10"/>
<path d="M28.6872 118.625C28.2815 125.774 32.6867 132.585 39.8162 134.942C46.8492 137.261 54.3362 134.508 58.3163 128.682L28.6872 118.625Z" stroke="#563B92" stroke-opacity="0.6" stroke-width="5" stroke-miterlimit="10"/>
<path d="M45.3711 95.0826L56.1233 62.4973C57.186 59.29 55.4374 55.8315 52.2301 54.7689C49.0227 53.7062 45.5642 55.4548 44.5016 58.6621C43.4389 61.8694 45.1875 65.3279 48.3948 66.3906L61.3014 70.6509" stroke="#563B92" stroke-opacity="0.6" stroke-width="5" stroke-miterlimit="10"/>
<path d="M59.5526 99.768L70.3049 67.1828C71.3675 63.9755 74.826 62.2366 78.0334 63.2896C81.2407 64.3522 82.9796 67.8107 81.9266 71.0181C80.864 74.2254 77.4055 75.9643 74.1981 74.9113L61.2915 70.651" stroke="#563B92" stroke-opacity="0.6" stroke-width="5" stroke-miterlimit="10"/>
<path d="M116.435 68.2456L127.332 71.849" stroke="#563B92" stroke-opacity="0.6" stroke-width="5" stroke-miterlimit="10" stroke-linecap="round"/>
<path d="M121.429 54.5177L132.781 52.8079" stroke="#563B92" stroke-opacity="0.6" stroke-width="5" stroke-miterlimit="10" stroke-linecap="round"/>
<path d="M108.812 80.022L116.908 88.1562" stroke="#563B92" stroke-opacity="0.6" stroke-width="5" stroke-miterlimit="10" stroke-linecap="round"/>
<path d="M15.2204 34.8391L4.32324 31.2454" stroke="#563B92" stroke-opacity="0.6" stroke-width="5" stroke-miterlimit="10" stroke-linecap="round"/>
<path d="M19.3841 20.831L11.2886 12.6968" stroke="#563B92" stroke-opacity="0.6" stroke-width="5" stroke-miterlimit="10" stroke-linecap="round"/>
<path d="M14.3415 48.8372L2.99994 50.5471" stroke="#563B92" stroke-opacity="0.6" stroke-width="5" stroke-miterlimit="10" stroke-linecap="round"/>
</svg>
