<svg width="300" height="302" viewBox="0 0 300 302" fill="none" xmlns="http://www.w3.org/2000/svg">
<path d="M4.40011 2.18614C4.40011 3.39373 3.41999 4.37228 2.21048 4.37228C0.980119 4.39311 0 3.39373 0 2.18614C0 0.978559 0.980119 0 2.18963 0C3.39914 0 4.40011 0.978559 4.40011 2.18614Z" fill="white" fill-opacity="0.3"/>
<path d="M31.7601 4.37229C32.9694 4.37229 33.9497 3.39352 33.9497 2.18614C33.9497 0.978769 32.9694 0 31.7601 0C30.5508 0 29.5704 0.978769 29.5704 2.18614C29.5704 3.39352 30.5508 4.37229 31.7601 4.37229Z" fill="white" fill-opacity="0.3"/>
<path d="M61.3096 4.37229C62.5189 4.37229 63.4993 3.39352 63.4993 2.18614C63.4993 0.978769 62.5189 0 61.3096 0C60.1003 0 59.12 0.978769 59.12 2.18614C59.12 3.39352 60.1003 4.37229 61.3096 4.37229Z" fill="white" fill-opacity="0.3"/>
<path d="M93.0696 2.18614C93.0696 3.39373 92.0895 4.37229 90.88 4.37229C89.6705 4.37229 88.6904 3.39373 88.6904 2.18614C88.6904 0.978559 89.6705 0 90.88 0C92.0895 0 93.0696 0.978559 93.0696 2.18614Z" fill="white" fill-opacity="0.3"/>
<path d="M120.43 4.37229C121.639 4.37229 122.619 3.39352 122.619 2.18614C122.619 0.978769 121.639 0 120.43 0C119.22 0 118.24 0.978769 118.24 2.18614C118.24 3.39352 119.22 4.37229 120.43 4.37229Z" fill="white" fill-opacity="0.3"/>
<path d="M152.19 2.18614C152.19 3.39373 151.21 4.37229 150 4.37229C148.79 4.37229 147.81 3.39373 147.81 2.18614C147.81 0.978559 148.79 0 150 0C151.21 0 152.19 0.978559 152.19 2.18614Z" fill="white" fill-opacity="0.3"/>
<path d="M181.76 2.18614C181.76 3.39373 180.78 4.37229 179.57 4.37229C178.361 4.37229 177.381 3.39373 177.381 2.18614C177.36 0.978559 178.34 0 179.55 0C180.78 0 181.76 0.978559 181.76 2.18614Z" fill="white" fill-opacity="0.3"/>
<path d="M209.12 4.37229C210.329 4.37229 211.31 3.39352 211.31 2.18614C211.31 0.978769 210.329 0 209.12 0C207.911 0 206.93 0.978769 206.93 2.18614C206.93 3.39352 207.911 4.37229 209.12 4.37229Z" fill="white" fill-opacity="0.3"/>
<path d="M238.69 4.37229C239.9 4.37229 240.88 3.39352 240.88 2.18614C240.88 0.978769 239.9 0 238.69 0C237.481 0 236.501 0.978769 236.501 2.18614C236.501 3.39352 237.481 4.37229 238.69 4.37229Z" fill="white" fill-opacity="0.3"/>
<path d="M270.43 2.18614C270.43 3.39373 269.449 4.37229 268.24 4.37229C267.03 4.37229 266.05 3.39373 266.05 2.18614C266.05 0.978559 267.03 0 268.24 0C269.449 0 270.43 0.978559 270.43 2.18614Z" fill="white" fill-opacity="0.3"/>
<path d="M297.81 4.37229C299.02 4.37229 300 3.39352 300 2.18614C300 0.978769 299.02 0 297.81 0C296.601 0 295.621 0.978769 295.621 2.18614C295.621 3.39352 296.601 4.37229 297.81 4.37229Z" fill="white" fill-opacity="0.3"/>
<path d="M4.40011 31.9594C4.40011 33.167 3.41999 34.1456 2.21048 34.1456C0.980119 34.1456 0 33.167 0 31.9594C0 30.7518 0.980119 29.7733 2.18963 29.7733C3.39914 29.7524 4.40011 30.7518 4.40011 31.9594Z" fill="white" fill-opacity="0.3"/>
<path d="M31.7601 34.1455C32.9694 34.1455 33.9497 33.1667 33.9497 31.9593C33.9497 30.752 32.9694 29.7732 31.7601 29.7732C30.5508 29.7732 29.5704 30.752 29.5704 31.9593C29.5704 33.1667 30.5508 34.1455 31.7601 34.1455Z" fill="white" fill-opacity="0.3"/>
<path d="M61.3096 34.1455C62.5189 34.1455 63.4993 33.1667 63.4993 31.9593C63.4993 30.752 62.5189 29.7732 61.3096 29.7732C60.1003 29.7732 59.12 30.752 59.12 31.9593C59.12 33.1667 60.1003 34.1455 61.3096 34.1455Z" fill="white" fill-opacity="0.3"/>
<path d="M93.0696 31.9594C93.0696 33.167 92.0895 34.1456 90.88 34.1456C89.6705 34.1456 88.6904 33.167 88.6904 31.9594C88.6904 30.7518 89.6705 29.7733 90.88 29.7733C92.0895 29.7524 93.0696 30.7518 93.0696 31.9594Z" fill="white" fill-opacity="0.3"/>
<path d="M120.43 34.1455C121.639 34.1455 122.619 33.1667 122.619 31.9593C122.619 30.752 121.639 29.7732 120.43 29.7732C119.22 29.7732 118.24 30.752 118.24 31.9593C118.24 33.1667 119.22 34.1455 120.43 34.1455Z" fill="white" fill-opacity="0.3"/>
<path d="M152.19 31.9594C152.19 33.167 151.21 34.1456 150 34.1456C148.79 34.1456 147.81 33.167 147.81 31.9594C147.81 30.7518 148.79 29.7733 150 29.7733C151.21 29.7524 152.19 30.7518 152.19 31.9594Z" fill="white" fill-opacity="0.3"/>
<path d="M181.76 31.9594C181.76 33.167 180.78 34.1456 179.57 34.1456C178.361 34.1456 177.381 33.167 177.381 31.9594C177.381 30.7518 178.361 29.7733 179.57 29.7733C180.78 29.7524 181.76 30.7518 181.76 31.9594Z" fill="white" fill-opacity="0.3"/>
<path d="M209.12 34.1455C210.329 34.1455 211.31 33.1667 211.31 31.9593C211.31 30.752 210.329 29.7732 209.12 29.7732C207.911 29.7732 206.93 30.752 206.93 31.9593C206.93 33.1667 207.911 34.1455 209.12 34.1455Z" fill="white" fill-opacity="0.3"/>
<path d="M238.69 34.1455C239.9 34.1455 240.88 33.1667 240.88 31.9593C240.88 30.752 239.9 29.7732 238.69 29.7732C237.481 29.7732 236.501 30.752 236.501 31.9593C236.501 33.1667 237.481 34.1455 238.69 34.1455Z" fill="white" fill-opacity="0.3"/>
<path d="M270.43 31.9594C270.43 33.167 269.449 34.1456 268.24 34.1456C267.03 34.1456 266.05 33.167 266.05 31.9594C266.05 30.7518 267.03 29.7733 268.24 29.7733C269.449 29.7524 270.43 30.7518 270.43 31.9594Z" fill="white" fill-opacity="0.3"/>
<path d="M297.81 34.1455C299.02 34.1455 300 33.1667 300 31.9593C300 30.752 299.02 29.7732 297.81 29.7732C296.601 29.7732 295.621 30.752 295.621 31.9593C295.621 33.1667 296.601 34.1455 297.81 34.1455Z" fill="white" fill-opacity="0.3"/>
<path d="M4.40011 61.7118C4.40011 62.9194 3.41999 63.8979 2.21048 63.8979C0.980119 63.8979 0 62.9194 0 61.7118C0 60.5042 0.980119 59.5256 2.18963 59.5256C3.39914 59.5256 4.40011 60.5042 4.40011 61.7118Z" fill="white" fill-opacity="0.3"/>
<path d="M31.7601 63.8979C32.9694 63.8979 33.9497 62.9191 33.9497 61.7118C33.9497 60.5044 32.9694 59.5256 31.7601 59.5256C30.5508 59.5256 29.5704 60.5044 29.5704 61.7118C29.5704 62.9191 30.5508 63.8979 31.7601 63.8979Z" fill="white" fill-opacity="0.3"/>
<path d="M61.3096 63.8979C62.5189 63.8979 63.4993 62.9191 63.4993 61.7118C63.4993 60.5044 62.5189 59.5256 61.3096 59.5256C60.1003 59.5256 59.12 60.5044 59.12 61.7118C59.12 62.9191 60.1003 63.8979 61.3096 63.8979Z" fill="white" fill-opacity="0.3"/>
<path d="M93.0696 61.7118C93.0696 62.9194 92.0895 63.8979 90.88 63.8979C89.6705 63.8979 88.6904 62.9194 88.6904 61.7118C88.6904 60.5042 89.6705 59.5256 90.88 59.5256C92.0895 59.5256 93.0696 60.5042 93.0696 61.7118Z" fill="white" fill-opacity="0.3"/>
<path d="M120.43 63.8979C121.639 63.8979 122.619 62.9191 122.619 61.7118C122.619 60.5044 121.639 59.5256 120.43 59.5256C119.22 59.5256 118.24 60.5044 118.24 61.7118C118.24 62.9191 119.22 63.8979 120.43 63.8979Z" fill="white" fill-opacity="0.3"/>
<path d="M152.19 61.7118C152.19 62.9194 151.21 63.8979 150 63.8979C148.79 63.8979 147.81 62.9194 147.81 61.7118C147.81 60.5042 148.79 59.5256 150 59.5256C151.21 59.5256 152.19 60.5042 152.19 61.7118Z" fill="white" fill-opacity="0.3"/>
<path d="M181.76 61.7118C181.76 62.9194 180.78 63.8979 179.57 63.8979C178.361 63.8979 177.381 62.9194 177.381 61.7118C177.381 60.5042 178.361 59.5256 179.57 59.5256C180.78 59.5256 181.76 60.5042 181.76 61.7118Z" fill="white" fill-opacity="0.3"/>
<path d="M209.12 63.8979C210.329 63.8979 211.31 62.9191 211.31 61.7118C211.31 60.5044 210.329 59.5256 209.12 59.5256C207.911 59.5256 206.93 60.5044 206.93 61.7118C206.93 62.9191 207.911 63.8979 209.12 63.8979Z" fill="white" fill-opacity="0.3"/>
<path d="M238.69 63.8979C239.9 63.8979 240.88 62.9191 240.88 61.7118C240.88 60.5044 239.9 59.5256 238.69 59.5256C237.481 59.5256 236.501 60.5044 236.501 61.7118C236.501 62.9191 237.481 63.8979 238.69 63.8979Z" fill="white" fill-opacity="0.3"/>
<path d="M270.43 61.7118C270.43 62.9194 269.449 63.8979 268.24 63.8979C267.03 63.8979 266.05 62.9194 266.05 61.7118C266.05 60.5042 267.03 59.5256 268.24 59.5256C269.449 59.5256 270.43 60.5042 270.43 61.7118Z" fill="white" fill-opacity="0.3"/>
<path d="M297.81 63.8979C299.02 63.8979 300 62.9191 300 61.7118C300 60.5044 299.02 59.5256 297.81 59.5256C296.601 59.5256 295.621 60.5044 295.621 61.7118C295.621 62.9191 296.601 63.8979 297.81 63.8979Z" fill="white" fill-opacity="0.3"/>
<path d="M4.40011 91.4848C4.40011 92.6924 3.41999 93.671 2.21048 93.671C0.980119 93.671 0 92.6924 0 91.4848C0 90.2772 0.980119 89.2987 2.18963 89.2987C3.39914 89.2778 4.40011 90.2564 4.40011 91.4848Z" fill="white" fill-opacity="0.3"/>
<path d="M31.7601 93.6711C32.9694 93.6711 33.9497 92.6923 33.9497 91.485C33.9497 90.2776 32.9694 89.2988 31.7601 89.2988C30.5508 89.2988 29.5704 90.2776 29.5704 91.485C29.5704 92.6923 30.5508 93.6711 31.7601 93.6711Z" fill="white" fill-opacity="0.3"/>
<path d="M61.3096 93.6711C62.5189 93.6711 63.4993 92.6923 63.4993 91.485C63.4993 90.2776 62.5189 89.2988 61.3096 89.2988C60.1003 89.2988 59.12 90.2776 59.12 91.485C59.12 92.6923 60.1003 93.6711 61.3096 93.6711Z" fill="white" fill-opacity="0.3"/>
<path d="M93.0696 91.4848C93.0696 92.6924 92.0895 93.671 90.88 93.671C89.6705 93.671 88.6904 92.6924 88.6904 91.4848C88.6904 90.2772 89.6705 89.2987 90.88 89.2987C92.0895 89.2778 93.0696 90.2564 93.0696 91.4848Z" fill="white" fill-opacity="0.3"/>
<path d="M120.43 93.6711C121.639 93.6711 122.619 92.6923 122.619 91.485C122.619 90.2776 121.639 89.2988 120.43 89.2988C119.22 89.2988 118.24 90.2776 118.24 91.485C118.24 92.6923 119.22 93.6711 120.43 93.6711Z" fill="white" fill-opacity="0.3"/>
<path d="M152.19 91.4848C152.19 92.6924 151.21 93.671 150 93.671C148.79 93.671 147.81 92.6924 147.81 91.4848C147.81 90.2772 148.79 89.2987 150 89.2987C151.21 89.2778 152.19 90.2564 152.19 91.4848Z" fill="white" fill-opacity="0.3"/>
<path d="M181.76 91.4848C181.76 92.6924 180.78 93.671 179.57 93.671C178.361 93.671 177.381 92.6924 177.381 91.4848C177.381 90.2772 178.361 89.2987 179.57 89.2987C180.78 89.2778 181.76 90.2564 181.76 91.4848Z" fill="white" fill-opacity="0.3"/>
<path d="M209.12 93.6711C210.329 93.6711 211.31 92.6923 211.31 91.485C211.31 90.2776 210.329 89.2988 209.12 89.2988C207.911 89.2988 206.93 90.2776 206.93 91.485C206.93 92.6923 207.911 93.6711 209.12 93.6711Z" fill="white" fill-opacity="0.3"/>
<path d="M238.69 93.6711C239.9 93.6711 240.88 92.6923 240.88 91.485C240.88 90.2776 239.9 89.2988 238.69 89.2988C237.481 89.2988 236.501 90.2776 236.501 91.485C236.501 92.6923 237.481 93.6711 238.69 93.6711Z" fill="white" fill-opacity="0.3"/>
<path d="M270.43 91.4848C270.43 92.6924 269.449 93.671 268.24 93.671C267.03 93.671 266.05 92.6924 266.05 91.4848C266.05 90.2772 267.03 89.2987 268.24 89.2987C269.449 89.2778 270.43 90.2564 270.43 91.4848Z" fill="white" fill-opacity="0.3"/>
<path d="M297.81 93.6711C299.02 93.6711 300 92.6923 300 91.485C300 90.2776 299.02 89.2988 297.81 89.2988C296.601 89.2988 295.621 90.2776 295.621 91.485C295.621 92.6923 296.601 93.6711 297.81 93.6711Z" fill="white" fill-opacity="0.3"/>
<path d="M4.40011 121.237C4.40011 122.445 3.41999 123.423 2.21048 123.423C0.980119 123.423 0 122.445 0 121.237C0 120.03 0.980119 119.051 2.18963 119.051C3.39914 119.051 4.40011 120.03 4.40011 121.237Z" fill="white" fill-opacity="0.3"/>
<path d="M31.7601 123.423C32.9694 123.423 33.9497 122.445 33.9497 121.237C33.9497 120.03 32.9694 119.051 31.7601 119.051C30.5508 119.051 29.5704 120.03 29.5704 121.237C29.5704 122.445 30.5508 123.423 31.7601 123.423Z" fill="white" fill-opacity="0.3"/>
<path d="M61.3096 123.423C62.5189 123.423 63.4993 122.445 63.4993 121.237C63.4993 120.03 62.5189 119.051 61.3096 119.051C60.1003 119.051 59.12 120.03 59.12 121.237C59.12 122.445 60.1003 123.423 61.3096 123.423Z" fill="white" fill-opacity="0.3"/>
<path d="M93.0696 121.237C93.0696 122.445 92.0895 123.423 90.88 123.423C89.6705 123.423 88.6904 122.445 88.6904 121.237C88.6904 120.03 89.6705 119.051 90.88 119.051C92.0895 119.051 93.0696 120.03 93.0696 121.237Z" fill="white" fill-opacity="0.3"/>
<path d="M120.43 123.423C121.639 123.423 122.619 122.445 122.619 121.237C122.619 120.03 121.639 119.051 120.43 119.051C119.22 119.051 118.24 120.03 118.24 121.237C118.24 122.445 119.22 123.423 120.43 123.423Z" fill="white" fill-opacity="0.3"/>
<path d="M152.19 121.237C152.19 122.445 151.21 123.423 150 123.423C148.79 123.423 147.81 122.445 147.81 121.237C147.81 120.03 148.79 119.051 150 119.051C151.21 119.051 152.19 120.03 152.19 121.237Z" fill="white" fill-opacity="0.3"/>
<path d="M181.76 121.237C181.76 122.445 180.78 123.423 179.57 123.423C178.361 123.423 177.381 122.445 177.381 121.237C177.381 120.03 178.361 119.051 179.57 119.051C180.78 119.051 181.76 120.03 181.76 121.237Z" fill="white" fill-opacity="0.3"/>
<path d="M209.12 123.423C210.329 123.423 211.31 122.445 211.31 121.237C211.31 120.03 210.329 119.051 209.12 119.051C207.911 119.051 206.93 120.03 206.93 121.237C206.93 122.445 207.911 123.423 209.12 123.423Z" fill="white" fill-opacity="0.3"/>
<path d="M238.69 123.423C239.9 123.423 240.88 122.445 240.88 121.237C240.88 120.03 239.9 119.051 238.69 119.051C237.481 119.051 236.501 120.03 236.501 121.237C236.501 122.445 237.481 123.423 238.69 123.423Z" fill="white" fill-opacity="0.3"/>
<path d="M270.43 121.237C270.43 122.445 269.449 123.423 268.24 123.423C267.03 123.423 266.05 122.445 266.05 121.237C266.05 120.03 267.03 119.051 268.24 119.051C269.449 119.051 270.43 120.03 270.43 121.237Z" fill="white" fill-opacity="0.3"/>
<path d="M297.81 123.423C299.02 123.423 300 122.445 300 121.237C300 120.03 299.02 119.051 297.81 119.051C296.601 119.051 295.621 120.03 295.621 121.237C295.621 122.445 296.601 123.423 297.81 123.423Z" fill="white" fill-opacity="0.3"/>
<path d="M4.40011 150.99C4.40011 152.197 3.41999 153.176 2.21048 153.176C0.980119 153.197 0 152.218 0 150.99C0 149.782 0.980119 148.803 2.18963 148.803C3.39914 148.803 4.40011 149.782 4.40011 150.99Z" fill="white" fill-opacity="0.3"/>
<path d="M31.7601 153.176C32.9694 153.176 33.9497 152.197 33.9497 150.99C33.9497 149.782 32.9694 148.803 31.7601 148.803C30.5508 148.803 29.5704 149.782 29.5704 150.99C29.5704 152.197 30.5508 153.176 31.7601 153.176Z" fill="white" fill-opacity="0.3"/>
<path d="M61.3096 153.176C62.5189 153.176 63.4993 152.197 63.4993 150.99C63.4993 149.782 62.5189 148.803 61.3096 148.803C60.1003 148.803 59.12 149.782 59.12 150.99C59.12 152.197 60.1003 153.176 61.3096 153.176Z" fill="white" fill-opacity="0.3"/>
<path d="M93.0696 150.99C93.0696 152.197 92.0895 153.176 90.88 153.176C89.6705 153.176 88.6904 152.197 88.6904 150.99C88.6904 149.782 89.6705 148.803 90.88 148.803C92.0895 148.803 93.0696 149.782 93.0696 150.99Z" fill="white" fill-opacity="0.3"/>
<path d="M120.43 153.176C121.639 153.176 122.619 152.197 122.619 150.99C122.619 149.782 121.639 148.803 120.43 148.803C119.22 148.803 118.24 149.782 118.24 150.99C118.24 152.197 119.22 153.176 120.43 153.176Z" fill="white" fill-opacity="0.3"/>
<path d="M152.19 150.99C152.19 152.197 151.21 153.176 150 153.176C148.79 153.176 147.81 152.197 147.81 150.99C147.81 149.782 148.79 148.803 150 148.803C151.21 148.803 152.19 149.782 152.19 150.99Z" fill="white" fill-opacity="0.3"/>
<path d="M181.76 150.99C181.76 152.197 180.78 153.176 179.57 153.176C178.361 153.176 177.381 152.197 177.381 150.99C177.381 149.782 178.361 148.803 179.57 148.803C180.78 148.803 181.76 149.782 181.76 150.99Z" fill="white" fill-opacity="0.3"/>
<path d="M209.12 153.176C210.329 153.176 211.31 152.197 211.31 150.99C211.31 149.782 210.329 148.803 209.12 148.803C207.911 148.803 206.93 149.782 206.93 150.99C206.93 152.197 207.911 153.176 209.12 153.176Z" fill="white" fill-opacity="0.3"/>
<path d="M238.69 153.176C239.9 153.176 240.88 152.197 240.88 150.99C240.88 149.782 239.9 148.803 238.69 148.803C237.481 148.803 236.501 149.782 236.501 150.99C236.501 152.197 237.481 153.176 238.69 153.176Z" fill="white" fill-opacity="0.3"/>
<path d="M270.43 150.99C270.43 152.197 269.449 153.176 268.24 153.176C267.03 153.176 266.05 152.197 266.05 150.99C266.05 149.782 267.03 148.803 268.24 148.803C269.449 148.803 270.43 149.782 270.43 150.99Z" fill="white" fill-opacity="0.3"/>
<path d="M297.81 153.176C299.02 153.176 300 152.197 300 150.99C300 149.782 299.02 148.803 297.81 148.803C296.601 148.803 295.621 149.782 295.621 150.99C295.621 152.197 296.601 153.176 297.81 153.176Z" fill="white" fill-opacity="0.3"/>
<path d="M4.40011 180.763C4.40011 181.97 3.41999 182.949 2.21048 182.949C0.980119 182.949 0 181.97 0 180.763C0 179.555 0.980119 178.577 2.18963 178.577C3.39914 178.577 4.40011 179.555 4.40011 180.763Z" fill="white" fill-opacity="0.3"/>
<path d="M31.7601 182.949C32.9694 182.949 33.9497 181.97 33.9497 180.763C33.9497 179.555 32.9694 178.577 31.7601 178.577C30.5508 178.577 29.5704 179.555 29.5704 180.763C29.5704 181.97 30.5508 182.949 31.7601 182.949Z" fill="white" fill-opacity="0.3"/>
<path d="M61.3096 182.949C62.5189 182.949 63.4993 181.97 63.4993 180.763C63.4993 179.555 62.5189 178.577 61.3096 178.577C60.1003 178.577 59.12 179.555 59.12 180.763C59.12 181.97 60.1003 182.949 61.3096 182.949Z" fill="white" fill-opacity="0.3"/>
<path d="M93.0696 180.763C93.0696 181.97 92.0895 182.949 90.88 182.949C89.6705 182.949 88.6904 181.97 88.6904 180.763C88.6904 179.555 89.6705 178.577 90.88 178.577C92.0895 178.577 93.0696 179.555 93.0696 180.763Z" fill="white" fill-opacity="0.3"/>
<path d="M120.43 182.949C121.639 182.949 122.619 181.97 122.619 180.763C122.619 179.555 121.639 178.577 120.43 178.577C119.22 178.577 118.24 179.555 118.24 180.763C118.24 181.97 119.22 182.949 120.43 182.949Z" fill="white" fill-opacity="0.3"/>
<path d="M152.19 180.763C152.19 181.97 151.21 182.949 150 182.949C148.79 182.949 147.81 181.97 147.81 180.763C147.81 179.555 148.79 178.577 150 178.577C151.21 178.577 152.19 179.555 152.19 180.763Z" fill="white" fill-opacity="0.3"/>
<path d="M181.76 180.763C181.76 181.97 180.78 182.949 179.57 182.949C178.361 182.949 177.381 181.97 177.381 180.763C177.381 179.555 178.361 178.577 179.57 178.577C180.78 178.577 181.76 179.555 181.76 180.763Z" fill="white" fill-opacity="0.3"/>
<path d="M209.12 182.949C210.329 182.949 211.31 181.97 211.31 180.763C211.31 179.555 210.329 178.577 209.12 178.577C207.911 178.577 206.93 179.555 206.93 180.763C206.93 181.97 207.911 182.949 209.12 182.949Z" fill="white" fill-opacity="0.3"/>
<path d="M238.69 182.949C239.9 182.949 240.88 181.97 240.88 180.763C240.88 179.555 239.9 178.577 238.69 178.577C237.481 178.577 236.501 179.555 236.501 180.763C236.501 181.97 237.481 182.949 238.69 182.949Z" fill="white" fill-opacity="0.3"/>
<path d="M270.43 180.763C270.43 181.97 269.449 182.949 268.24 182.949C267.03 182.949 266.05 181.97 266.05 180.763C266.05 179.555 267.03 178.577 268.24 178.577C269.449 178.577 270.43 179.555 270.43 180.763Z" fill="white" fill-opacity="0.3"/>
<path d="M297.81 182.949C299.02 182.949 300 181.97 300 180.763C300 179.555 299.02 178.577 297.81 178.577C296.601 178.577 295.621 179.555 295.621 180.763C295.621 181.97 296.601 182.949 297.81 182.949Z" fill="white" fill-opacity="0.3"/>
<path d="M4.40013 210.515C4.40013 211.723 3.42001 212.701 2.2105 212.701C1.00099 212.701 0.020874 211.723 0.020874 210.515C0.020874 209.308 1.00099 208.329 2.2105 208.329C3.39916 208.329 4.40013 209.308 4.40013 210.515Z" fill="white" fill-opacity="0.3"/>
<path d="M31.7601 212.701C32.9694 212.701 33.9497 211.723 33.9497 210.515C33.9497 209.308 32.9694 208.329 31.7601 208.329C30.5508 208.329 29.5704 209.308 29.5704 210.515C29.5704 211.723 30.5508 212.701 31.7601 212.701Z" fill="white" fill-opacity="0.3"/>
<path d="M61.3096 212.701C62.5189 212.701 63.4993 211.723 63.4993 210.515C63.4993 209.308 62.5189 208.329 61.3096 208.329C60.1003 208.329 59.12 209.308 59.12 210.515C59.12 211.723 60.1003 212.701 61.3096 212.701Z" fill="white" fill-opacity="0.3"/>
<path d="M93.0696 210.515C93.0696 211.723 92.0895 212.701 90.88 212.701C89.6705 212.701 88.6904 211.723 88.6904 210.515C88.6904 209.308 89.6705 208.329 90.88 208.329C92.0895 208.329 93.0696 209.308 93.0696 210.515Z" fill="white" fill-opacity="0.3"/>
<path d="M120.43 212.701C121.639 212.701 122.619 211.723 122.619 210.515C122.619 209.308 121.639 208.329 120.43 208.329C119.22 208.329 118.24 209.308 118.24 210.515C118.24 211.723 119.22 212.701 120.43 212.701Z" fill="white" fill-opacity="0.3"/>
<path d="M152.19 210.515C152.19 211.723 151.21 212.701 150 212.701C148.79 212.701 147.81 211.723 147.81 210.515C147.81 209.308 148.79 208.329 150 208.329C151.21 208.329 152.19 209.308 152.19 210.515Z" fill="white" fill-opacity="0.3"/>
<path d="M181.76 210.515C181.76 211.723 180.78 212.701 179.57 212.701C178.361 212.701 177.381 211.723 177.381 210.515C177.381 209.308 178.361 208.329 179.57 208.329C180.78 208.329 181.76 209.308 181.76 210.515Z" fill="white" fill-opacity="0.3"/>
<path d="M209.12 212.701C210.329 212.701 211.31 211.723 211.31 210.515C211.31 209.308 210.329 208.329 209.12 208.329C207.911 208.329 206.93 209.308 206.93 210.515C206.93 211.723 207.911 212.701 209.12 212.701Z" fill="white" fill-opacity="0.3"/>
<path d="M238.69 212.701C239.9 212.701 240.88 211.723 240.88 210.515C240.88 209.308 239.9 208.329 238.69 208.329C237.481 208.329 236.501 209.308 236.501 210.515C236.501 211.723 237.481 212.701 238.69 212.701Z" fill="white" fill-opacity="0.3"/>
<path d="M270.43 210.515C270.43 211.723 269.449 212.701 268.24 212.701C267.03 212.701 266.05 211.723 266.05 210.515C266.05 209.308 267.03 208.329 268.24 208.329C269.449 208.329 270.43 209.308 270.43 210.515Z" fill="white" fill-opacity="0.3"/>
<path d="M297.81 212.701C299.02 212.701 300 211.723 300 210.515C300 209.308 299.02 208.329 297.81 208.329C296.601 208.329 295.621 209.308 295.621 210.515C295.621 211.723 296.601 212.701 297.81 212.701Z" fill="white" fill-opacity="0.3"/>
<path d="M4.40013 240.288C4.40013 241.496 3.42001 242.474 2.2105 242.474C1.00099 242.474 0.020874 241.496 0.020874 240.288C0.020874 239.081 1.00099 238.102 2.2105 238.102C3.39916 238.081 4.40013 239.081 4.40013 240.288Z" fill="white" fill-opacity="0.3"/>
<path d="M31.7601 242.474C32.9694 242.474 33.9497 241.496 33.9497 240.288C33.9497 239.081 32.9694 238.102 31.7601 238.102C30.5508 238.102 29.5704 239.081 29.5704 240.288C29.5704 241.496 30.5508 242.474 31.7601 242.474Z" fill="white" fill-opacity="0.3"/>
<path d="M61.3096 242.474C62.5189 242.474 63.4993 241.496 63.4993 240.288C63.4993 239.081 62.5189 238.102 61.3096 238.102C60.1003 238.102 59.12 239.081 59.12 240.288C59.12 241.496 60.1003 242.474 61.3096 242.474Z" fill="white" fill-opacity="0.3"/>
<path d="M93.0696 240.288C93.0696 241.496 92.0895 242.474 90.88 242.474C89.6705 242.474 88.6904 241.496 88.6904 240.288C88.6904 239.081 89.6705 238.102 90.88 238.102C92.0895 238.081 93.0696 239.081 93.0696 240.288Z" fill="white" fill-opacity="0.3"/>
<path d="M120.43 242.474C121.639 242.474 122.619 241.496 122.619 240.288C122.619 239.081 121.639 238.102 120.43 238.102C119.22 238.102 118.24 239.081 118.24 240.288C118.24 241.496 119.22 242.474 120.43 242.474Z" fill="white" fill-opacity="0.3"/>
<path d="M152.19 240.288C152.19 241.496 151.21 242.474 150 242.474C148.79 242.474 147.81 241.496 147.81 240.288C147.81 239.081 148.79 238.102 150 238.102C151.21 238.081 152.19 239.081 152.19 240.288Z" fill="white" fill-opacity="0.3"/>
<path d="M181.76 240.288C181.76 241.496 180.78 242.474 179.57 242.474C178.361 242.474 177.381 241.496 177.381 240.288C177.381 239.081 178.361 238.102 179.57 238.102C180.78 238.081 181.76 239.081 181.76 240.288Z" fill="white" fill-opacity="0.3"/>
<path d="M209.12 242.474C210.329 242.474 211.31 241.496 211.31 240.288C211.31 239.081 210.329 238.102 209.12 238.102C207.911 238.102 206.93 239.081 206.93 240.288C206.93 241.496 207.911 242.474 209.12 242.474Z" fill="white" fill-opacity="0.3"/>
<path d="M238.69 242.474C239.9 242.474 240.88 241.496 240.88 240.288C240.88 239.081 239.9 238.102 238.69 238.102C237.481 238.102 236.501 239.081 236.501 240.288C236.501 241.496 237.481 242.474 238.69 242.474Z" fill="white" fill-opacity="0.3"/>
<path d="M270.43 240.288C270.43 241.496 269.449 242.474 268.24 242.474C267.03 242.474 266.05 241.496 266.05 240.288C266.05 239.081 267.03 238.102 268.24 238.102C269.449 238.081 270.43 239.081 270.43 240.288Z" fill="white" fill-opacity="0.3"/>
<path d="M297.81 242.474C299.02 242.474 300 241.496 300 240.288C300 239.081 299.02 238.102 297.81 238.102C296.601 238.102 295.621 239.081 295.621 240.288C295.621 241.496 296.601 242.474 297.81 242.474Z" fill="white" fill-opacity="0.3"/>
<path d="M4.40013 270.041C4.40013 271.248 3.42001 272.227 2.2105 272.227C1.00099 272.227 0.020874 271.248 0.020874 270.041C0.020874 268.833 1.00099 267.854 2.2105 267.854C3.39916 267.854 4.40013 268.833 4.40013 270.041Z" fill="white" fill-opacity="0.3"/>
<path d="M31.7601 272.227C32.9694 272.227 33.9497 271.248 33.9497 270.041C33.9497 268.833 32.9694 267.854 31.7601 267.854C30.5508 267.854 29.5704 268.833 29.5704 270.041C29.5704 271.248 30.5508 272.227 31.7601 272.227Z" fill="white" fill-opacity="0.3"/>
<path d="M61.3096 272.227C62.5189 272.227 63.4993 271.248 63.4993 270.041C63.4993 268.833 62.5189 267.854 61.3096 267.854C60.1003 267.854 59.12 268.833 59.12 270.041C59.12 271.248 60.1003 272.227 61.3096 272.227Z" fill="white" fill-opacity="0.3"/>
<path d="M93.0696 270.041C93.0696 271.248 92.0895 272.227 90.88 272.227C89.6705 272.227 88.6904 271.248 88.6904 270.041C88.6904 268.833 89.6705 267.854 90.88 267.854C92.0895 267.854 93.0696 268.833 93.0696 270.041Z" fill="white" fill-opacity="0.3"/>
<path d="M120.43 272.227C121.639 272.227 122.619 271.248 122.619 270.041C122.619 268.833 121.639 267.854 120.43 267.854C119.22 267.854 118.24 268.833 118.24 270.041C118.24 271.248 119.22 272.227 120.43 272.227Z" fill="white" fill-opacity="0.3"/>
<path d="M152.19 270.041C152.19 271.248 151.21 272.227 150 272.227C148.79 272.227 147.81 271.248 147.81 270.041C147.81 268.833 148.79 267.854 150 267.854C151.21 267.854 152.19 268.833 152.19 270.041Z" fill="white" fill-opacity="0.3"/>
<path d="M181.76 270.041C181.76 271.248 180.78 272.227 179.57 272.227C178.361 272.227 177.381 271.248 177.381 270.041C177.381 268.833 178.361 267.854 179.57 267.854C180.78 267.854 181.76 268.833 181.76 270.041Z" fill="white" fill-opacity="0.3"/>
<path d="M209.12 272.227C210.329 272.227 211.31 271.248 211.31 270.041C211.31 268.833 210.329 267.854 209.12 267.854C207.911 267.854 206.93 268.833 206.93 270.041C206.93 271.248 207.911 272.227 209.12 272.227Z" fill="white" fill-opacity="0.3"/>
<path d="M238.69 272.227C239.9 272.227 240.88 271.248 240.88 270.041C240.88 268.833 239.9 267.854 238.69 267.854C237.481 267.854 236.501 268.833 236.501 270.041C236.501 271.248 237.481 272.227 238.69 272.227Z" fill="white" fill-opacity="0.3"/>
<path d="M270.43 270.041C270.43 271.248 269.449 272.227 268.24 272.227C267.03 272.227 266.05 271.248 266.05 270.041C266.05 268.833 267.03 267.854 268.24 267.854C269.449 267.854 270.43 268.833 270.43 270.041Z" fill="white" fill-opacity="0.3"/>
<path d="M297.81 272.227C299.02 272.227 300 271.248 300 270.041C300 268.833 299.02 267.854 297.81 267.854C296.601 267.854 295.621 268.833 295.621 270.041C295.621 271.248 296.601 272.227 297.81 272.227Z" fill="white" fill-opacity="0.3"/>
<path d="M4.40011 299.814C4.40011 301.022 3.41999 302 2.21048 302C0.980119 302 0 301.022 0 299.814C0 298.606 0.980119 297.628 2.18963 297.628C3.39914 297.607 4.40011 298.586 4.40011 299.814Z" fill="white" fill-opacity="0.3"/>
<path d="M31.7601 302C32.9694 302 33.9497 301.021 33.9497 299.814C33.9497 298.606 32.9694 297.628 31.7601 297.628C30.5508 297.628 29.5704 298.606 29.5704 299.814C29.5704 301.021 30.5508 302 31.7601 302Z" fill="white" fill-opacity="0.3"/>
<path d="M61.3096 302C62.5189 302 63.4993 301.021 63.4993 299.814C63.4993 298.606 62.5189 297.628 61.3096 297.628C60.1003 297.628 59.12 298.606 59.12 299.814C59.12 301.021 60.1003 302 61.3096 302Z" fill="white" fill-opacity="0.3"/>
<path d="M93.0696 299.814C93.0696 301.022 92.0895 302 90.88 302C89.6705 302 88.6904 301.022 88.6904 299.814C88.6904 298.606 89.6705 297.628 90.88 297.628C92.0895 297.607 93.0696 298.586 93.0696 299.814Z" fill="white" fill-opacity="0.3"/>
<path d="M120.43 302C121.639 302 122.619 301.021 122.619 299.814C122.619 298.606 121.639 297.628 120.43 297.628C119.22 297.628 118.24 298.606 118.24 299.814C118.24 301.021 119.22 302 120.43 302Z" fill="white" fill-opacity="0.3"/>
<path d="M152.19 299.814C152.19 301.022 151.21 302 150 302C148.79 302 147.81 301.022 147.81 299.814C147.81 298.606 148.79 297.628 150 297.628C151.21 297.607 152.19 298.586 152.19 299.814Z" fill="white" fill-opacity="0.3"/>
<path d="M181.76 299.814C181.76 301.022 180.78 302 179.57 302C178.361 302 177.381 301.022 177.381 299.814C177.381 298.606 178.361 297.628 179.57 297.628C180.78 297.607 181.76 298.586 181.76 299.814Z" fill="white" fill-opacity="0.3"/>
<path d="M209.12 302C210.329 302 211.31 301.021 211.31 299.814C211.31 298.606 210.329 297.628 209.12 297.628C207.911 297.628 206.93 298.606 206.93 299.814C206.93 301.021 207.911 302 209.12 302Z" fill="white" fill-opacity="0.3"/>
<path d="M238.69 302C239.9 302 240.88 301.021 240.88 299.814C240.88 298.606 239.9 297.628 238.69 297.628C237.481 297.628 236.501 298.606 236.501 299.814C236.501 301.021 237.481 302 238.69 302Z" fill="white" fill-opacity="0.3"/>
<path d="M270.43 299.814C270.43 301.022 269.449 302 268.24 302C267.03 302 266.05 301.022 266.05 299.814C266.05 298.606 267.03 297.628 268.24 297.628C269.449 297.607 270.43 298.586 270.43 299.814Z" fill="white" fill-opacity="0.3"/>
<path d="M297.81 302C299.02 302 300 301.021 300 299.814C300 298.606 299.02 297.628 297.81 297.628C296.601 297.628 295.621 298.606 295.621 299.814C295.621 301.021 296.601 302 297.81 302Z" fill="white" fill-opacity="0.3"/>
</svg>
