<svg width="217" height="211" viewBox="0 0 217 211" fill="none" xmlns="http://www.w3.org/2000/svg">
<path d="M157.031 53.4453L110.415 31.9438C107.916 30.7993 106.829 27.8442 107.974 25.3451L110.908 18.9876C112.052 16.4885 115.007 15.4019 117.506 16.5464L164.123 38.0479C166.622 39.1924 167.708 42.1477 166.564 44.6468L163.63 51.0043C162.474 53.513 159.519 54.5994 157.031 53.4453Z" stroke="#563B92" stroke-opacity="0.6" stroke-width="6" stroke-miterlimit="10" stroke-linecap="round"/>
<path d="M130.717 99.1718L152.306 51.296L115.114 34.5236L93.5247 82.3995L42.1476 144.373C37.6589 154.313 42.0901 166.004 52.0211 170.481L92.1825 188.587C102.123 193.075 113.814 188.644 118.291 178.713L130.717 99.1718Z" stroke="#563B92" stroke-opacity="0.6" stroke-width="6" stroke-miterlimit="10" stroke-linecap="round"/>
<path d="M70.3476 110.339C70.3476 110.339 84.6366 108.233 97.0906 124.121C109.545 140.009 125.789 130.774 125.789 130.774" stroke="#563B92" stroke-opacity="0.6" stroke-width="6" stroke-miterlimit="10" stroke-linecap="round"/>
</svg>
