<svg width="214" height="250" viewBox="0 0 214 250" fill="none" xmlns="http://www.w3.org/2000/svg">
<path d="M181.713 209.126L121.686 233.07L117.021 221.369C115.946 218.656 117.256 215.589 119.967 214.501L170.178 194.466C172.891 193.391 175.957 194.701 177.046 197.412L181.713 209.126Z" stroke="#563B92" stroke-opacity="0.6" stroke-width="5" stroke-miterlimit="10" stroke-linecap="round"/>
<path d="M151.218 147.035C175.247 120.695 173.375 79.8628 147.035 55.8334C120.695 31.804 79.8628 33.6768 55.8334 60.0165C31.804 86.3563 33.6769 127.188 60.0167 151.218C86.3564 175.247 127.189 173.375 151.218 147.035Z" stroke="#563B92" stroke-opacity="0.6" stroke-width="5" stroke-miterlimit="10"/>
<path d="M141.907 155.405L65.0336 51.6825L55.4945 39.1279C19.8494 65.5431 12.3743 115.847 38.7896 151.492C65.2048 187.137 115.509 194.612 151.154 168.197L141.761 155.524" stroke="#563B92" stroke-opacity="0.6" stroke-width="5" stroke-miterlimit="10" stroke-linecap="round" stroke-linejoin="round"/>
<path d="M81.9538 74.3987C99.8547 61.1298 110.585 45.2713 105.92 38.9777C101.255 32.6841 82.9611 38.3387 65.0601 51.6076C47.1592 64.8765 36.4294 80.735 41.0944 87.0286C45.7595 93.3222 64.0528 87.6676 81.9538 74.3987Z" stroke="#563B92" stroke-opacity="0.6" stroke-width="5" stroke-miterlimit="10"/>
<path d="M101.043 168.039C115.203 168.575 129.641 164.503 141.907 155.405C154.173 146.308 162.278 133.684 165.886 119.984C151.727 119.449 137.289 123.521 125.023 132.618C112.743 141.717 104.651 154.339 101.043 168.039Z" stroke="#563B92" stroke-opacity="0.6" stroke-width="5" stroke-miterlimit="10"/>
<path d="M141.946 155.329C156.264 144.716 150.66 112.892 129.429 84.2495C108.198 55.6068 79.3793 40.9911 65.061 51.6045C50.7426 62.2178 56.3466 94.0411 77.5777 122.684C98.8088 151.327 127.627 165.942 141.946 155.329Z" stroke="#563B92" stroke-opacity="0.6" stroke-width="5" stroke-miterlimit="10"/>
<path d="M51.6089 141.981L155.332 65.1072" stroke="#563B92" stroke-opacity="0.6" stroke-width="5" stroke-miterlimit="10"/>
<path d="M133.892 177.967L144.708 204.43" stroke="#563B92" stroke-opacity="0.6" stroke-width="5" stroke-miterlimit="10"/>
<path d="M114.608 236.777L191.017 205.543" stroke="#563B92" stroke-opacity="0.6" stroke-width="5" stroke-miterlimit="10" stroke-linecap="round"/>
</svg>
