<svg width="25" height="24" viewBox="0 0 25 24" fill="none" xmlns="http://www.w3.org/2000/svg">
<path d="M12.4437 7.06885C9.48078 7.06885 7.02576 9.48155 7.02576 12.4868C7.02576 15.4921 9.43846 17.9048 12.4437 17.9048C15.449 17.9048 17.8617 15.4498 17.8617 12.4868C17.8617 9.52387 15.4067 7.06885 12.4437 7.06885ZM12.4437 15.9577C10.539 15.9577 8.97285 14.3916 8.97285 12.4868C8.97285 10.5821 10.539 9.01594 12.4437 9.01594C14.3485 9.01594 15.9146 10.5821 15.9146 12.4868C15.9146 14.3916 14.3485 15.9577 12.4437 15.9577Z" fill="white"/>
<path d="M18.0734 8.16938C18.7513 8.16938 19.3009 7.61981 19.3009 6.94187C19.3009 6.26393 18.7513 5.71436 18.0734 5.71436C17.3955 5.71436 16.8459 6.26393 16.8459 6.94187C16.8459 7.61981 17.3955 8.16938 18.0734 8.16938Z" fill="white"/>
<path d="M21.248 3.76719C20.1475 2.62433 18.5813 2.03174 16.8036 2.03174H8.08398C4.40144 2.03174 1.94641 4.48676 1.94641 8.1693V16.8466C1.94641 18.6667 2.539 20.2328 3.72419 21.3757C4.86705 22.4762 6.39086 23.0264 8.12631 23.0264H16.7612C18.5813 23.0264 20.1051 22.4339 21.2057 21.3757C22.3485 20.2751 22.9411 18.709 22.9411 16.8889V8.1693C22.9411 6.39153 22.3485 4.86772 21.248 3.76719ZM21.0787 16.8889C21.0787 18.2011 20.6131 19.2593 19.8512 19.9788C19.0893 20.6984 18.0311 21.0794 16.7612 21.0794H8.12631C6.85646 21.0794 5.79826 20.6984 5.03636 19.9788C4.27445 19.2169 3.8935 18.1587 3.8935 16.8466V8.1693C3.8935 6.89946 4.27445 5.84126 5.03636 5.07936C5.75593 4.35978 6.85646 3.97883 8.12631 3.97883H16.8459C18.1157 3.97883 19.1739 4.35978 19.9358 5.12169C20.6554 5.88359 21.0787 6.94179 21.0787 8.1693V16.8889Z" fill="white"/>
</svg>
