<svg width="22" height="22" viewBox="0 0 22 22" fill="none" xmlns="http://www.w3.org/2000/svg">
<path d="M4.45179 6.92334H0.495117V21.2603H4.45179V6.92334Z" fill="white"/>
<path d="M17.6758 6.9233C14.7576 5.81035 12.6456 7.69448 11.743 8.74609V6.9233H7.79944V21.2602H11.743V13.6974C11.7205 12.7389 12.0708 11.809 12.7201 11.1034C12.9054 10.8853 13.1338 10.7077 13.3909 10.5818C13.648 10.4559 13.9283 10.3844 14.2142 10.3717C14.5341 10.3656 14.8519 10.4241 15.1486 10.5438C15.4452 10.6635 15.7146 10.842 15.9406 11.0684C16.4307 11.5806 16.6985 12.2657 16.6855 12.9744V21.2602H21.1373V12.3829C21.1373 12.3829 21.6325 8.40432 17.6758 6.9233Z" fill="white"/>
<path d="M2.47128 4.94256C3.83613 4.94256 4.94256 3.83613 4.94256 2.47128C4.94256 1.10643 3.83613 0 2.47128 0C1.10643 0 0 1.10643 0 2.47128C0 3.83613 1.10643 4.94256 2.47128 4.94256Z" fill="white"/>
</svg>
