<svg width="211" height="222" viewBox="0 0 211 222" fill="none" xmlns="http://www.w3.org/2000/svg">
<path d="M116.213 148.049C159.871 135.012 190.253 107.666 184.073 86.9715C177.893 66.277 137.491 60.07 93.8329 73.1078C50.1746 86.1456 19.7925 113.491 25.9726 134.186C32.1527 154.88 72.5546 161.087 116.213 148.049Z" stroke="#563B92" stroke-opacity="0.6" stroke-width="5" stroke-miterlimit="10" stroke-linecap="round" stroke-linejoin="round"/>
<path d="M142.824 120.564C154.391 76.4955 146.834 36.3265 125.945 30.8437C105.056 25.361 78.7455 56.6407 67.1788 100.709C55.6121 144.777 63.1692 184.946 84.058 190.429C104.947 195.912 131.257 164.632 142.824 120.564Z" stroke="#563B92" stroke-opacity="0.6" stroke-width="5" stroke-miterlimit="10" stroke-linecap="round" stroke-linejoin="round"/>
<path d="M166.25 165.865C180.712 149.826 165.004 112.091 131.166 81.5816C97.3282 51.0727 58.1737 39.3431 43.7121 55.3826C29.2506 71.4222 44.9582 109.157 78.7961 139.666C112.634 170.175 151.788 181.905 166.25 165.865Z" stroke="#563B92" stroke-opacity="0.6" stroke-width="5" stroke-miterlimit="10" stroke-linecap="round" stroke-linejoin="round"/>
<path d="M107.985 120.498C113.463 118.862 116.578 113.095 114.942 107.616C113.306 102.138 107.539 99.0234 102.06 100.659C96.5823 102.295 93.4676 108.063 95.1035 113.541C96.7395 119.019 102.507 122.134 107.985 120.498Z" stroke="#563B92" stroke-opacity="0.6" stroke-width="5" stroke-miterlimit="10" stroke-linecap="round" stroke-linejoin="round"/>
</svg>
