<svg width="16" height="16" viewBox="0 0 16 16" fill="none" xmlns="http://www.w3.org/2000/svg">
<path d="M14.1705 10.8791V12.8667C14.1712 13.0512 14.1334 13.2338 14.0595 13.4029C13.9856 13.5719 13.8772 13.7237 13.7412 13.8484C13.6052 13.9732 13.4447 14.0681 13.2699 14.1273C13.0951 14.1864 12.9099 14.2083 12.7261 14.1917C10.6874 13.9702 8.72913 13.2736 7.00855 12.1578C5.40777 11.1406 4.0506 9.78339 3.0334 8.18261C1.91371 6.45422 1.21691 4.48638 0.999442 2.43851C0.982886 2.2553 1.00466 2.07065 1.06338 1.89632C1.12209 1.72198 1.21647 1.56178 1.34049 1.42592C1.46451 1.29006 1.61546 1.18151 1.78373 1.10718C1.95201 1.03285 2.13391 0.994378 2.31787 0.994205H4.30545C4.62697 0.99104 4.93868 1.1049 5.18247 1.31456C5.42626 1.52422 5.5855 1.81537 5.6305 2.13375C5.71439 2.76982 5.86997 3.39436 6.09427 3.99545C6.1834 4.23258 6.2027 4.4903 6.14986 4.73806C6.09702 4.98582 5.97426 5.21324 5.79613 5.39338L4.95472 6.23478C5.89786 7.89345 7.27121 9.2668 8.92988 10.2099L9.77128 9.36853C9.95142 9.1904 10.1788 9.06765 10.4266 9.01481C10.6744 8.96197 10.9321 8.98126 11.1692 9.0704C11.7703 9.29469 12.3948 9.45027 13.0309 9.53416C13.3527 9.57957 13.6467 9.74167 13.8568 9.98965C14.0669 10.2376 14.1785 10.5542 14.1705 10.8791Z" stroke="#B0B0D1" stroke-width="1.29193" stroke-linecap="round" stroke-linejoin="round"/>
</svg>
